#!OML:ASF X:\für Bonn\!DataBase\2005_08_12_Daniel\c3d\Daniel.ASF
:FULLY-SPECIFIED
:DEGREES
984
root 19.1042 17.3278 31.8388 -6.85994 128.825 -0.312842
lowerback 9.87678 -0.201965 1.08409
upperback 2.0578 -0.105072 -1.43326
thorax -3.40226 -0.0203916 -2.08761
lowerneck 2.15147 4.54038 -1.99187
upperneck 12.152 7.72492 -7.81922
head 3.88904 3.75471 -2.02593
rclavicle 2.8861e-014 6.36111e-015
rhumerus -36.2588 -7.97237 -82.8784
rradius 21.2144
rwrist 16.9344
rhand -20.8051 16.2062
rfingers 7.12502
rthumb 5.56255 -13.7008
lclavicle 2.8861e-014 6.36111e-015
lhumerus -32.8073 -0.564864 95.5739
lradius 52.4788
lwrist 0.0737031
lhand -12.1813 -6.50274
lfingers 7.12502
lthumb 13.8823 23.0139
rfemur -14.2359 17.1964 14.0427
rtibia 39.5386
rfoot -14.6887 3.33696
rtoes -21.2688
lfemur -6.11076 -19.7745 -30.2154
ltibia 36.8514
lfoot -17.9634 -18.4848
ltoes -4.0045
985
root 19.1906 17.3356 31.857 -6.8189 130.752 -0.333688
lowerback 9.84758 -0.364138 0.999539
upperback 2.03861 -0.328541 -1.42415
thorax -3.41536 -0.13048 -2.00215
lowerneck 2.17738 4.52388 -1.82993
upperneck 12.1843 7.71483 -7.82483
head 3.90287 3.76037 -2.05686
rclavicle 3.94712e-014 9.54166e-015
rhumerus -36.7959 -7.63061 -82.7811
rradius 21.4266
rwrist 16.1516
rhand -21.1305 16.296
rfingers 7.12502
rthumb 5.24831 -13.619
lclavicle 3.94712e-014 9.54166e-015
lhumerus -32.838 -0.57781 95.6199
lradius 51.9711
lwrist -0.140438
lhand -12.1069 -6.21147
lfingers 7.12502
lthumb 13.954 23.3003
rfemur -14.0371 18.293 13.7837
rtibia 38.3803
rfoot -14.4485 5.1663
rtoes -21.0423
lfemur -5.96977 -20.1997 -30.1043
ltibia 36.8113
lfoot -18.0356 -19.6067
ltoes -3.94158
986
root 19.2748 17.3411 31.8733 -6.85991 132.705 -0.435461
lowerback 9.85007 -0.53114 0.88697
upperback 2.02168 -0.561309 -1.44177
thorax -3.44325 -0.244669 -1.92749
lowerneck 2.18286 4.51443 -1.61038
upperneck 12.2383 7.71766 -7.83857
head 3.93199 3.77334 -2.09982
rclavicle 4.17075e-014 -6.36111e-015
rhumerus -37.3058 -7.2856 -82.7217
rradius 21.5451
rwrist 15.3185
rhand -21.4011 16.4002
rfingers 7.12502
rthumb 4.98702 -13.5211
lclavicle 4.17075e-014 -6.36111e-015
lhumerus -32.865 -0.490972 95.6469
lradius 51.3822
lwrist -0.349544
lhand -12.0527 -6.13188
lfingers 7.12502
lthumb 14.0062 23.3763
rfemur -13.7909 19.2774 13.4903
rtibia 37.3331
rfoot -14.2812 6.93043
rtoes -20.9956
lfemur -5.81506 -20.5525 -30.0723
ltibia 36.7809
lfoot -18.0115 -20.6075
ltoes -3.64532
987
root 19.3575 17.3456 31.8877 -6.8528 134.577 -0.496758
lowerback 9.80018 -0.691018 0.856539
upperback 2.02338 -0.776711 -1.48462
thorax -3.42274 -0.350423 -1.92781
lowerneck 2.19444 4.5076 -1.40441
upperneck 12.2562 7.71344 -7.82444
head 3.94441 3.78318 -2.13144
rclavicle 5.1858e-014 3.97569e-016
rhumerus -37.7773 -6.8239 -82.8248
rradius 21.7005
rwrist 14.3363
rhand -21.5677 16.3869
rfingers 7.12502
rthumb 4.82623 -13.5381
lclavicle 5.1858e-014 3.97569e-016
lhumerus -32.8289 -0.461167 95.5879
lradius 50.7235
lwrist -0.466758
lhand -11.9689 -6.02312
lfingers 7.12502
lthumb 14.087 23.4794
rfemur -13.5877 20.1616 13.2035
rtibia 36.3778
rfoot -14.127 8.6609
rtoes -21.0178
lfemur -5.66886 -20.8802 -30.0202
ltibia 36.7629
lfoot -17.7969 -21.417
ltoes -2.52899
988
root 19.4401 17.351 31.9011 -6.85862 136.486 -0.593386
lowerback 9.69609 -0.873009 0.774866
upperback 2.03791 -1.02602 -1.5125
thorax -3.35909 -0.472164 -1.88018
lowerneck 2.21571 4.5079 -1.21265
upperneck 12.303 7.73484 -7.87105
head 3.96973 3.80463 -2.18075
rclavicle 6.44311e-014 -1.39149e-014
rhumerus -38.2194 -6.21842 -82.9843
rradius 21.8407
rwrist 13.362
rhand -21.7334 16.2668
rfingers 7.12502
rthumb 4.66624 -13.6619
lclavicle 6.44311e-014 -1.39149e-014
lhumerus -32.7919 -0.15973 95.4971
lradius 49.9609
lwrist -0.861444
lhand -11.9124 -6.07761
lfingers 7.12502
lthumb 14.1414 23.4211
rfemur -13.3676 20.9147 12.896
rtibia 35.5041
rfoot -13.8998 10.3392
rtoes -20.5313
lfemur -5.5786 -21.0328 -29.998
ltibia 36.7812
lfoot -17.5848 -22.2249
ltoes -1.75664
989
root 19.5183 17.3536 31.9131 -6.819 138.346 -0.62069
lowerback 9.62051 -1.05396 0.809276
upperback 2.04661 -1.26279 -1.55028
thorax -3.31905 -0.589086 -1.91017
lowerneck 2.28505 4.50217 -0.975808
upperneck 12.2853 7.74339 -7.96499
head 3.96713 3.82273 -2.25608
rclavicle 6.56859e-014 -1.98785e-015
rhumerus -38.704 -5.74124 -83.1608
rradius 22.0067
rwrist 12.5165
rhand -21.8503 16.0971
rfingers 7.12502
rthumb 4.55331 -13.8339
lclavicle 6.56859e-014 -1.98785e-015
lhumerus -32.6934 0.0759635 95.3644
lradius 49.09
lwrist -1.08747
lhand -11.8994 -6.2647
lfingers 7.12502
lthumb 14.1539 23.2332
rfemur -13.1538 21.5106 12.635
rtibia 34.7097
rfoot -13.5993 12.1188
rtoes -19.871
lfemur -5.47722 -21.1437 -29.9788
ltibia 36.8376
lfoot -17.5375 -22.7041
ltoes -1.36692
990
root 19.5934 17.3551 31.9228 -6.81038 140.209 -0.690512
lowerback 9.50855 -1.23193 0.829614
upperback 2.10237 -1.49487 -1.60457
thorax -3.21044 -0.701881 -1.9514
lowerneck 2.28562 4.50249 -0.749568
upperneck 12.2275 7.74634 -8.01932
head 3.95995 3.83531 -2.31469
rclavicle 1.02026e-013 1.82882e-014
rhumerus -39.08 -5.22151 -83.391
rradius 22.1648
rwrist 11.6228
rhand -21.854 15.8339
rfingers 7.12502
rthumb 4.54971 -14.0972
lclavicle 1.02026e-013 1.82882e-014
lhumerus -32.4996 0.384332 95.2217
lradius 48.119
lwrist -1.33766
lhand -11.9929 -6.56034
lfingers 7.12502
lthumb 14.0639 22.9438
rfemur -12.9148 22.0183 12.3469
rtibia 33.9973
rfoot -13.2205 13.7137
rtoes -18.8852
lfemur -5.39339 -20.9782 -30.0328
ltibia 36.9403
lfoot -17.7608 -22.9695
ltoes -1.88375
